<svg width="20" height="20" viewBox="0 0 20 20" fill="none" xmlns="http://www.w3.org/2000/svg">
<path d="M10 18.9584C5.05835 18.9584 1.04169 14.9417 1.04169 10.0001C1.04169 5.05841 5.05835 1.04175 10 1.04175C14.9417 1.04175 18.9584 5.05841 18.9584 10.0001C18.9584 14.9417 14.9417 18.9584 10 18.9584ZM10 2.29175C5.75002 2.29175 2.29169 5.75008 2.29169 10.0001C2.29169 14.2501 5.75002 17.7084 10 17.7084C14.25 17.7084 17.7084 14.2501 17.7084 10.0001C17.7084 5.75008 14.25 2.29175 10 2.29175Z" fill="#BAE9C0"/>
<path d="M7.50001 18.125H6.66668C6.32501 18.125 6.04168 17.8417 6.04168 17.5C6.04168 17.1583 6.30835 16.8833 6.65001 16.875C5.34168 12.4083 5.34168 7.59167 6.65001 3.125C6.30835 3.11667 6.04168 2.84167 6.04168 2.5C6.04168 2.15833 6.32501 1.875 6.66668 1.875H7.50001C7.70001 1.875 7.89168 1.975 8.00835 2.13333C8.12501 2.3 8.15835 2.50833 8.09168 2.7C6.52501 7.40833 6.52501 12.5917 8.09168 17.3083C8.15835 17.5 8.12501 17.7083 8.00835 17.875C7.89168 18.025 7.70001 18.125 7.50001 18.125Z" fill="#BAE9C0"/>
<path d="M12.5 18.125C12.4333 18.125 12.3667 18.1167 12.3 18.0917C11.975 17.9833 11.7917 17.625 11.9083 17.3C13.475 12.5917 13.475 7.40832 11.9083 2.69165C11.8 2.36665 11.975 2.00832 12.3 1.89999C12.6333 1.79165 12.9833 1.96665 13.0917 2.29165C14.75 7.25832 14.75 12.725 13.0917 17.6833C13.0083 17.9583 12.7583 18.125 12.5 18.125Z" fill="#BAE9C0"/>
<path d="M10 14.3335C7.675 14.3335 5.35833 14.0085 3.125 13.3502C3.11667 13.6835 2.84167 13.9585 2.5 13.9585C2.15833 13.9585 1.875 13.6752 1.875 13.3335V12.5002C1.875 12.3002 1.975 12.1085 2.13333 11.9918C2.3 11.8752 2.50833 11.8418 2.7 11.9085C7.40833 13.4752 12.6 13.4752 17.3083 11.9085C17.5 11.8418 17.7083 11.8752 17.875 11.9918C18.0417 12.1085 18.1333 12.3002 18.1333 12.5002V13.3335C18.1333 13.6752 17.85 13.9585 17.5083 13.9585C17.1667 13.9585 16.8917 13.6918 16.8833 13.3502C14.6417 14.0085 12.325 14.3335 10 14.3335Z" fill="#BAE9C0"/>
<path d="M17.5 8.12497C17.4334 8.12497 17.3667 8.11663 17.3 8.09163C12.5917 6.52497 7.40002 6.52497 2.69169 8.09163C2.35836 8.19997 2.00836 8.02497 1.90002 7.69997C1.80002 7.36663 1.97502 7.01663 2.30002 6.9083C7.26669 5.24997 12.7334 5.24997 17.6917 6.9083C18.0167 7.01663 18.2 7.37497 18.0834 7.69997C18.0084 7.9583 17.7584 8.12497 17.5 8.12497Z" fill="#BAE9C0"/>
</svg>
